<?xml version="1.0" encoding="utf-8"?>
<!-- Generator: Adobe Illustrator 28.0.0, SVG Export Plug-In . SVG Version: 6.00 Build 0)  -->
<svg version="1.1" id="_Слой_1" xmlns="http://www.w3.org/2000/svg" xmlns:xlink="http://www.w3.org/1999/xlink" x="0px"
	 y="0px" viewBox="0 0 580.8 580.9" style="enable-background:new 0 0 580.8 580.9;" xml:space="preserve">
<style type="text/css">
	.st0{fill:#0166FE;}
	.st1{fill:#0197FE;}
	.st2{fill:#66C9FE;}
</style>
<path class="st0" d="M232.5,58.5c0-6.7-0.2-13.3,0-20c0.9-21.5,18.1-37.9,39.5-38c12,0,24-0.1,36,0c21.4,0.1,39.6,17,40.4,39.9
	c0.4,11.8,0.3,23.7,0,35.5c-0.4,20.7,17.9,40.7,40.3,40.4c11.7-0.1,23.3-0.2,35,0.1c23.9,0.7,40.8,18.3,40.8,42.1
	c0,11.2,0.2,22.3,0,33.5c-0.4,20.5,17.8,40.4,39.9,40.2c12-0.1,24-0.2,36,0.2c23.1,0.7,40.1,18.5,40.1,41.8c0,10.7,0,21.3,0,32
	c0,21.1-12.2,35.8-32.6,41.9c-2.1,0.6-4.6,0.3-6.9,0.3c-11,0-22-0.1-33,0c-15.8,0.3-28.9,5.8-37.6,19.6c-3.8,5.9-5.9,12.5-5.9,19.6
	c0,11.5,0.1,23,0,34.5c-0.2,21.7-12.4,35.7-32.5,42c-2.3,0.7-5,0.3-7.4,0.3c-11,0-22-0.2-33,0.1c-16.2,0.4-29.4,6.4-37.8,21
	c-3.4,5.8-5,12.1-5,18.8c-0.1,10.7,0,21.3,0,32c0,22.4-11,37.3-32.3,43.7c-1.1,0.3-2.3,0.2-3.4,0.2c-14.3,0-28.7,0.4-43,0
	c-13.1-0.3-23.3-6.6-30.6-17.2c-4.2-6-6.9-12.9-6.8-20.5c0.1-13.8-0.3-27.7,0.1-41.5c0.6-18.5,18.3-36.1,37.9-36.6
	c12.3-0.3,24.7-0.2,37-0.2c22.7-0.1,40.8-18.2,40.9-41c0-11,0-22,0-33c0.1-23.8,16.7-41.1,40.4-41.9c11-0.3,22-0.2,33-0.2
	c22.8,0,39.7-14.2,42.1-36.9c1.5-14.5,1.5-29.3-0.2-43.9c-2.2-19.2-18.7-34.1-38-34.8c-12.3-0.5-24.7-0.2-37-0.2
	c-22,0-39.9-17.8-40.3-39.9c-0.3-13.6,1.1-27.4-0.7-40.9c-2.5-19.5-18.8-34.3-38.4-34.9c-12.5-0.4-25,0-37.5-0.3
	C253,116,237.9,104,232.9,84.4C230.8,76.2,232.6,67.1,232.5,58.5C232.5,58.5,232.5,58.5,232.5,58.5L232.5,58.5z"/>
<path class="st1" d="M173.9,464.4c-6.2,0-12.3-0.1-18.5,0c-20.5,0.4-38.5-17.4-38.9-36.9c-0.3-14.5-0.5-29,0.1-43.5
	c0.7-16.1,13.9-31.4,30.3-34.6c11.2-2.2,22.5-1,33.8-1.2c9.9-0.2,19.7,0.6,28.8-4.8c14.2-8.4,22.3-20.4,22.7-37.1
	c0.2-10.5,0.1-21,0-31.5c0-20.7-13.4-36.7-33-41.4c-7.1-1.7-14.7-1.6-22.2-1.3c-7.3,0.3-14.7,0-22,0.1c-20.2,0.2-38-17.3-38.5-36.7
	c-0.4-14.1-0.5-28.3,0-42.5c0.8-19.8,16.9-35.8,37.1-36.7c13.6-0.6,27.3-0.7,41,0c21.9,1.2,37.7,20.1,37.9,39.5
	c0.1,11.5,0,23,0,34.5c0.1,23.9,18,41.7,41.7,41.7c11.8,0,23.7-0.1,35.5,0.2c21,0.5,38.6,18.5,38.8,39.4c0.1,12.3,0.1,24.6,0,37
	c-0.1,21.3-18.3,39.5-39.6,39.6c-12.2,0.1-24.3-0.2-36.5,0.2c-22.6,0.7-39.7,18.4-39.9,41c-0.1,11.7,0.2,23.3-0.1,35
	c-0.4,19.4-13.3,34.8-33.1,39.5C191.3,466,182.4,464.4,173.9,464.4L173.9,464.4L173.9,464.4z"/>
<path class="st2" d="M0.5,287.7c0.6-6.8-1.2-16.3,1.1-25.7c4-16.2,19.4-29.1,36.1-29.5c13.5-0.3,27-0.3,40.5,0
	c19.9,0.4,38,18.8,38.3,38.7c0.2,12.8,0.4,25.7-0.1,38.5c-0.8,21.2-18.8,38.6-39.1,38.8c-12.7,0.1-25.3-0.2-38,0.1
	C19,348.9,0.5,330.5,0.5,310.8C0.5,304,0.5,297.2,0.5,287.7L0.5,287.7z"/>
</svg>
